<?xml version="1.0" encoding="UTF-8" standalone="no"?><!DOCTYPE svg PUBLIC "-//W3C//DTD SVG 1.1//EN" "http://www.w3.org/Graphics/SVG/1.1/DTD/svg11.dtd"><svg width="100%" height="100%" viewBox="0 0 1080 1080" version="1.1" xmlns="http://www.w3.org/2000/svg" xmlns:xlink="http://www.w3.org/1999/xlink" xml:space="preserve" xmlns:serif="http://www.serif.com/" style="fill-rule:evenodd;clip-rule:evenodd;stroke-linejoin:round;stroke-miterlimit:2;"><rect id="favicon" x="0" y="0" width="1080" height="1080" style="fill:none;"/><clipPath id="_clip1"><rect x="0" y="0" width="1080" height="1080"/></clipPath><g clip-path="url(#_clip1)"><g><path d="M559.798,68.558c339.246,0 388.415,99.558 388.415,180.217c-0,61.579 75.395,517.103 75.395,517.103l53.659,-0.066c-0,-0 2.326,-6.188 -0,-0c-6.284,16.715 8.554,-17.291 -0,-0c-27.833,56.259 -75.799,110.487 -141.613,153.561c-128.63,84.186 -277.545,143.772 -431.275,143.772c-140.525,0 -218.219,-15.1 -286.991,-58.536c-24.426,-15.427 -36.351,-53.405 -36.351,-82.295c-0,-78.024 54.827,-87.592 0.293,-143.393c-37.331,-38.198 -83.408,-44.329 -105.295,-67.396c-18.609,-19.611 -25.904,-40.428 -25.904,-84.305c-0,-11.089 -2.598,-280.278 -2.598,-379.641c0,-61.584 173.019,-179.021 512.265,-179.021Z" style="fill:#ede3d9;"/><path d="M502.582,18.855c53.67,-0 -53.67,-0 0,-0c244.295,-0 518.25,63.824 518.25,230.012c0,116.605 2.826,516.688 2.826,516.688c0,0 4.294,-16.709 0,0c-21.759,84.673 -202.874,162.528 -381.439,191.996c-34.244,5.651 -66.202,11.659 -137.713,11.659c-84.275,-0 -160.77,-13.963 -192.174,-31.052c-7.751,-4.218 -19.816,-10.821 -19.816,-19.644c0,-46.36 -0.055,-309.789 -0.055,-388.709c-0,-78.921 3.237,-94.163 31.315,-122.242c17.941,-17.94 180.383,-178.648 180.383,-178.648c-0,0 -294.046,-1.827 -368.582,-1.827c-62.602,-0 -79.987,14.251 -79.987,102.188c-0,34.453 0.688,239.73 -0.39,305.703c-0.075,4.593 -1.703,10.792 -6.004,12.402c-5.883,2.202 -49.196,0.811 -49.196,0.811l-0,-423.235c-0,-143.192 163.336,-206.102 502.582,-206.102Z" style="fill:#dacaba;"/></g></g></svg>